<svg width="245" height="230" viewBox="0 0 245 230" fill="none" xmlns="http://www.w3.org/2000/svg">
<path fill-rule="evenodd" clip-rule="evenodd" d="M244.681 121.003C244.513 124.066 244.218 127.098 243.8 130.094L106.354 0.981653C109.543 0.588937 112.771 0.31151 116.032 0.153973L244.681 121.003ZM95.0331 2.88908C98.3306 2.18114 101.679 1.59828 105.072 1.1461L243.625 131.299C243.143 134.486 242.523 137.631 241.769 140.729L95.0331 2.88908ZM235.648 158.809C236.688 156.441 237.646 154.032 238.519 151.587L83.474 5.94234C80.871 6.76229 78.3071 7.66218 75.7855 8.63888L235.648 158.809ZM74.7573 9.04234C72.002 10.1374 69.2982 11.3246 66.6503 12.5997L231.432 167.391C232.789 164.903 234.053 162.363 235.219 159.775L74.7573 9.04234ZM242.503 92.5034C241.535 87.9165 240.276 83.4278 238.746 79.0549L160.687 5.72919C156.032 4.29155 151.254 3.10908 146.371 2.19941L242.503 92.5034ZM144.57 1.87713C140.117 1.11271 135.579 0.574633 130.972 0.276057L244.551 106.969C244.233 102.641 243.66 98.3784 242.846 94.195L144.57 1.87713ZM244.845 115C244.845 116.572 244.811 118.137 244.745 119.693L117.426 0.0940311C119.083 0.0315432 120.749 0 122.422 0C124.77 0 127.102 0.0620627 129.417 0.184537L244.648 108.43C244.779 110.604 244.845 112.795 244.845 115ZM241.493 141.839C240.742 144.791 239.869 147.699 238.881 150.557L84.5699 5.60252C87.6133 4.67396 90.7089 3.85434 93.8516 3.14856L241.493 141.839ZM227.485 55.935C231.708 62.5481 235.242 69.5928 237.997 76.982L162.894 6.4328C170.76 9.02017 178.26 12.3406 185.3 16.3068L227.485 55.935ZM65.6902 13.0672C63.1098 14.3371 60.5836 15.6909 58.1156 17.1248L226.615 175.408C228.141 173.09 229.582 170.716 230.934 168.293L65.6902 13.0672ZM226.054 176.251L57.2183 17.6512C55.0708 18.9231 52.9683 20.2561 50.9135 21.6474L221.8 182.173C223.281 180.243 224.7 178.268 226.054 176.251ZM221.186 182.966L50.0696 22.2239C47.7912 23.7945 45.5728 25.4373 43.4183 27.1488L215.944 189.214C217.766 187.19 219.515 185.106 221.186 182.966ZM189.193 18.5944C203.494 27.3529 215.726 38.8435 225.05 52.2781L189.193 18.5944ZM0.209238 108.22C0.420937 104.799 0.791775 101.419 1.3149 98.0854L140.429 228.765C136.88 229.256 133.281 229.605 129.64 229.803L0.209238 108.22ZM0.1365 109.521L128.255 229.872C126.322 229.957 124.378 230 122.422 230C120.856 230 119.297 229.972 117.745 229.918L0.0877083 119.394C0.0294101 117.936 0 116.471 0 115C0 113.163 0.0458387 111.337 0.1365 109.521ZM0.154363 120.826L116.221 229.855C111.725 229.644 107.294 229.206 102.939 228.552L1.54185 133.302C0.845421 129.211 0.378656 125.048 0.154363 120.826ZM1.83491 134.947L101.188 228.276C95.812 227.393 90.5563 226.18 85.4457 224.661L5.68333 149.735C4.06605 144.934 2.77509 139.997 1.83491 134.947ZM6.39098 151.769C8.94255 158.877 12.2135 165.674 16.1225 172.083L61.6549 214.855C68.4781 218.527 75.7137 221.6 83.2803 223.997L6.39098 151.769ZM18.2723 175.472C28.2681 190.631 41.9098 203.446 58.0474 212.836L18.2723 175.472ZM6.17971 78.825C5.29137 81.3452 4.49331 83.9041 3.78913 86.4983L152.764 226.441C155.525 225.779 158.249 225.029 160.932 224.195L6.17971 78.825ZM151.597 226.714L3.49784 87.594C2.70271 90.6491 2.03751 93.7521 1.50807 96.8976L141.693 228.583C145.042 228.086 148.345 227.461 151.597 226.714ZM6.54664 77.8003C7.54245 75.0624 8.64513 72.371 9.85002 69.7306L170.614 220.747C167.803 221.879 164.938 222.915 162.023 223.85L6.54664 77.8003ZM35.7105 33.8203C33.9527 35.477 32.2484 37.1839 30.6002 38.9383L203.393 201.255C205.261 199.707 207.078 198.106 208.842 196.455L35.7105 33.8203ZM202.616 201.894L29.9199 39.6686C28.0732 41.6679 26.2986 43.7277 24.6002 45.8444L196.041 206.891C198.295 205.296 200.488 203.629 202.616 201.894ZM209.569 195.768L36.4412 33.1373C38.4385 31.2861 40.5032 29.4988 42.6315 27.7791L215.273 189.953C213.442 191.953 211.539 193.892 209.569 195.768ZM195.207 207.477L23.9768 46.6281C22.2817 48.7783 20.6645 50.9859 19.1292 53.2473L188.161 212.031C190.568 210.588 192.918 209.069 195.207 207.477ZM179.646 216.69C177.029 217.992 174.356 219.208 171.63 220.333L10.2912 68.7757C11.489 66.2155 12.7832 63.7042 14.1695 61.2457L179.646 216.69ZM180.596 216.212L14.6778 60.3538C15.9049 58.2233 17.2016 56.1333 18.5649 54.0865L187.267 212.561C185.088 213.841 182.864 215.059 180.596 216.212Z" fill="url(#paint0_linear_2_27)" fill-opacity="0.4"/>
<defs>
<linearGradient id="paint0_linear_2_27" x1="49.3985" y1="25.2193" x2="180.79" y2="217.148" gradientUnits="userSpaceOnUse">
<stop stop-color="#ED7B50" stop-opacity="0.7"/>
<stop offset="0.5" stop-color="#EDADBE" stop-opacity="0.92"/>
<stop offset="1" stop-color="#2C2C2C"/>
</linearGradient>
</defs>
</svg>
